<svg width="32" height="32" viewBox="0 0 32 32" fill="none" xmlns="http://www.w3.org/2000/svg">
<g opacity="0.7">
<path d="M16 26.6111L12.8333 23.5952H8.08333C7.66111 23.5952 7.29167 23.4403 6.975 23.1303C6.65833 22.8203 6.5 22.4727 6.5 22.0873V7.00794C6.5 6.60582 6.65833 6.25397 6.975 5.95238C7.29167 5.65079 7.66111 5.5 8.08333 5.5H23.9167C24.3213 5.5 24.6863 5.65079 25.0118 5.95238C25.3373 6.25397 25.5 6.60582 25.5 7.00794V22.0873C25.5 22.4727 25.3373 22.8203 25.0118 23.1303C24.6863 23.4403 24.3213 23.5952 23.9167 23.5952H19.1667L16 26.6111Z" stroke="white" stroke-width="1.5" stroke-linecap="round" stroke-linejoin="round"/>
<path d="M17.3696 16.3518L20.5 15.0474L17.3696 13.7431L16 10.7617L14.606 13.7431L11.5 15.0474L14.606 16.3518L16 19.3331L17.3696 16.3518Z" fill="white"/>
</g>
</svg>
