<svg width="32" height="32" viewBox="0 0 32 32" fill="none" xmlns="http://www.w3.org/2000/svg">
<path fill-rule="evenodd" clip-rule="evenodd" d="M23.1053 14.8702C24.7568 14.6381 26.0282 13.2222 26.0318 11.5068C26.0318 9.81626 24.7994 8.41456 23.1834 8.14938" fill="#644A03"/>
<path d="M23.1053 14.8702C24.7568 14.6381 26.0282 13.2222 26.0318 11.5068C26.0318 9.81626 24.7994 8.41456 23.1834 8.14938" stroke="#644A03" stroke-width="1.5" stroke-linecap="round" stroke-linejoin="round"/>
<path fill-rule="evenodd" clip-rule="evenodd" d="M25.2843 18.8406C26.8837 19.0798 28.0001 19.6397 28.0001 20.794C28.0001 21.5884 27.4745 22.1045 26.6244 22.4289" fill="#644A03"/>
<path d="M25.2843 18.8406C26.8837 19.0798 28.0001 19.6397 28.0001 20.794C28.0001 21.5884 27.4745 22.1045 26.6244 22.4289" stroke="#644A03" stroke-width="1.5" stroke-linecap="round" stroke-linejoin="round"/>
<path fill-rule="evenodd" clip-rule="evenodd" d="M16.0005 19.3291C12.1955 19.3291 8.9458 19.9056 8.9458 22.2082C8.9458 24.5097 12.1754 25.1028 16.0005 25.1028C19.8054 25.1028 23.0539 24.5322 23.0539 22.2283C23.0539 19.9245 19.8255 19.3291 16.0005 19.3291Z" fill="#FBBA07" stroke="#FBBA07" stroke-width="1.5" stroke-linecap="round" stroke-linejoin="round"/>
<path fill-rule="evenodd" clip-rule="evenodd" d="M16.0006 16.0424C18.4974 16.0424 20.5218 14.0191 20.5218 11.5212C20.5218 9.02441 18.4974 7 16.0006 7C13.5038 7 11.4794 9.02441 11.4794 11.5212C11.4699 14.0097 13.479 16.0341 15.9674 16.0424H16.0006Z" fill="#FBBA07" stroke="#FBBA07" stroke-width="1.5" stroke-linecap="round" stroke-linejoin="round"/>
<path fill-rule="evenodd" clip-rule="evenodd" d="M8.89502 14.8702C7.24234 14.6381 5.97206 13.2222 5.96851 11.5068C5.96851 9.81626 7.20091 8.41456 8.81688 8.14938" fill="#644A03"/>
<path d="M8.89502 14.8702C7.24234 14.6381 5.97206 13.2222 5.96851 11.5068C5.96851 9.81626 7.20091 8.41456 8.81688 8.14938" stroke="#644A03" stroke-width="1.5" stroke-linecap="round" stroke-linejoin="round"/>
<path fill-rule="evenodd" clip-rule="evenodd" d="M6.71579 18.8406C5.11638 19.0798 4 19.6397 4 20.794C4 21.5884 4.52564 22.1045 5.37565 22.4289" fill="#644A03"/>
<path d="M6.71579 18.8406C5.11638 19.0798 4 19.6397 4 20.794C4 21.5884 4.52564 22.1045 5.37565 22.4289" stroke="#644A03" stroke-width="1.5" stroke-linecap="round" stroke-linejoin="round"/>
</svg>
